<svg width="119" height="42" viewBox="0 0 119 42" fill="none" xmlns="http://www.w3.org/2000/svg">
<g clip-path="url(#clip0_3001_276)">
<path d="M119 0H0V29.3015H119V0Z" fill="#00AB4E"/>
<path d="M25.8609 14.2365C25.8609 11.6876 24.8217 10.0586 22.6187 10.0586C21.2196 10.0586 19.7679 11.0118 19.3167 12.5109H19.2693V10.4816L14.6157 10.4588V11.0329L15.7374 11.0557L15.7234 23.291H14.6175V23.8685L20.1593 23.8966V23.291H19.4642V15.4407C19.4642 12.9989 19.968 11.3049 21.1898 11.326C21.8551 11.326 22.1184 11.9948 22.1184 13.1323V23.319H21.4268V23.8966H26.9721V23.319H25.8627V14.2365H25.8609Z" fill="white"/>
<path d="M38.7543 5.62305H33.8216V6.20409H35.0381V11.0561H34.9784C34.7063 10.5891 33.9093 10.0608 33.1036 10.0608H33.0386C30.0562 10.0871 27.9462 13.6559 27.9321 17.3194C27.9321 20.8619 30.0404 24.3095 32.8245 24.3095H33.0404C34.3429 24.2358 34.8941 23.4458 35.2294 22.7279H35.2821V23.897H39.5881V23.3194H38.7578V5.62305H38.7543ZM33.6021 23.4687C33.4055 23.4687 33.2335 23.4458 33.0369 23.3826C32.0345 23.0491 31.0357 11.6319 31.0357 17.4985C31.0568 13.3171 32.0363 11.4844 33.0369 11.0087C33.2072 10.9385 33.3845 10.9034 33.553 10.9034C34.3184 10.9034 35.0363 11.6319 35.0188 13.8296V18.952C35.0188 22.461 34.6852 23.4687 33.6004 23.4687H33.6021Z" fill="white"/>
<path d="M7.03874 6.18436H8.25524L8.24295 23.2909H7.01416V23.8685H13.6988V23.2909H12.4823L12.4946 6.18436H13.7199V5.60156H7.03874V6.18436Z" fill="white"/>
<path d="M45.6743 10.4976H40.8294V11.0733H41.9318V23.3192H40.8101V23.9142H46.7873V23.3402H45.6533L45.6743 10.4976Z" fill="white"/>
<path d="M92.5578 5.68767L87.7006 5.67188V6.24941H88.8152V23.3595H87.6777V23.93L93.6602 23.9528V23.3823H92.5385L92.5578 5.68767Z" fill="white"/>
<path d="M43.7979 9.53601C44.8494 9.53601 45.7148 8.57229 45.7148 7.36983C45.7148 6.16736 44.8652 5.22119 43.7979 5.22119C42.7306 5.22119 41.895 6.18316 41.895 7.36983C41.895 8.55649 42.7552 9.53601 43.7979 9.53601Z" fill="white"/>
<path d="M85.5421 10.5151H81.1026V11.1032H81.8118V18.971C81.8118 21.411 81.3098 23.0822 80.1161 23.0822C79.4367 23.0822 79.1611 22.4099 79.1611 21.2741V10.5169H74.7217V11.105H75.4291V14.8861L75.4203 20.1857C75.4203 22.7065 76.4595 24.3637 78.6556 24.3637C80.0476 24.3637 81.5099 23.3824 81.9575 21.9043H82.0313V23.9406H86.6621V23.3613H85.5333L85.5438 10.5169L85.5421 10.5151Z" fill="white"/>
<path d="M104.497 12.511C104.497 11.6561 105.202 10.7012 106.587 10.7012C108.701 10.7205 109.372 12.4952 110.093 14.9721H111.006L111.025 11.1857C109.74 10.5467 108.332 10.1412 106.918 10.1201C103.83 10.1201 101.932 12.109 101.932 14.6158C101.932 20.0242 109.412 18.3846 109.412 21.8498C109.412 23.2138 108.439 23.7984 106.849 23.7984C104.239 23.7984 103.982 21.3495 103.243 19.1044H102.13V23.1348C103.545 24.0248 105.399 24.3794 106.61 24.3794C110.439 24.3794 111.985 21.9253 111.985 19.552C111.985 14.4104 104.497 15.755 104.497 12.511Z" fill="white"/>
<path d="M99.5183 5.6875H94.668V6.27381H95.7757V23.3821H94.647V23.9527H100.629V23.3821H99.4972L99.5183 5.6875Z" fill="white"/>
<path d="M58.6472 14.3897C58.6472 11.0334 56.9637 10.0767 53.6442 10.0767C53.4441 10.0767 53.2545 10.0767 53.0491 10.0942C51.8396 10.189 50.5915 10.5067 49.4874 11.0562V15.22H50.4265C50.8777 13.9193 51.5746 11.0316 53.0491 10.7016C53.1579 10.6735 53.2545 10.6437 53.3581 10.6437C54.6185 10.6437 54.8379 11.632 54.8379 12.8502V15.1446C54.55 15.5975 53.8829 15.838 53.0491 16.0837C51.0128 16.6893 48.0269 17.2247 48.0269 20.553C48.0269 22.7508 49.7735 24.3324 52.0046 24.3324C52.4031 24.3324 52.7489 24.2956 53.0491 24.2043C54.0163 23.9498 54.7097 23.3178 55.1872 22.0118H55.2258V23.9111H59.7548V23.3389H58.6489V14.388L58.6472 14.3897ZM54.8045 20.4477C54.8045 22.2786 54.1831 23.1967 53.4195 23.3406C53.2949 23.3599 53.179 23.3599 53.0474 23.3406C52.2522 23.2441 51.2937 22.4155 51.3095 20.8743C51.3095 17.8813 52.1187 17.2546 53.0474 16.8719C53.6424 16.6507 54.2709 16.4962 54.8045 15.9766V20.4459V20.4477Z" fill="white"/>
<path d="M68.0258 10.1027H67.9626C67.1569 10.1027 66.3582 10.6329 66.0931 11.0998H66.0281V5.66679H62.326L61.0972 5.66504V6.25135H62.3119V23.3614H61.4816V23.9425H65.7894V22.7734H65.8403C66.1774 23.4913 66.7286 24.2778 68.0293 24.355H68.2417C71.0329 24.355 73.1358 20.9038 73.1358 17.3632C73.1236 13.6996 71.0118 10.1291 68.0293 10.1045L68.0258 10.1027ZM68.0258 23.4194C67.8292 23.4878 67.6589 23.5089 67.4588 23.5089C66.3757 23.5089 66.0457 22.4995 66.0457 18.994V13.8734C66.0246 11.6756 66.7408 10.9436 67.5115 10.9436C67.6818 10.9436 67.8591 10.984 68.0258 11.0507C69.0317 11.5281 70.0059 13.3608 70.0288 17.5457C70.0288 21.6815 69.0317 23.0929 68.0258 23.4229V23.4194Z" fill="white"/>
<path d="M9.60914 32.8901C10.1059 32.8901 10.5588 32.9937 10.9661 33.2026C11.3014 33.3501 11.5664 33.6186 11.7613 34.0066C11.9561 34.3963 12.0386 34.714 12.0123 34.9615H10.9064C10.8924 34.6596 10.8098 34.4314 10.6554 34.2769C10.3745 33.989 10.0217 33.8451 9.5986 33.8451C9.37742 33.8451 9.17906 33.8714 9.00527 33.9258C8.56291 34.054 8.34523 34.3419 8.35226 34.7913C8.35226 34.9317 8.3821 35.0581 8.44354 35.1687C8.50322 35.2793 8.57168 35.3688 8.64892 35.4355C8.72616 35.5022 8.85255 35.5707 9.02634 35.6374C9.20012 35.7041 9.34933 35.755 9.47397 35.7883C9.5986 35.8217 9.78995 35.8691 10.0515 35.9288C10.7484 36.0973 11.2856 36.329 11.6612 36.6274C12.0369 36.9258 12.2247 37.37 12.2247 37.9598C12.2247 38.6497 11.9877 39.1781 11.5155 39.5432C11.0433 39.9083 10.4237 40.0909 9.66004 40.0909C9.14395 40.0909 8.65419 39.9961 8.19076 39.81C7.80808 39.6626 7.51141 39.394 7.30076 39.006C7.09011 38.6181 6.99707 38.2477 7.0234 37.9001H8.12932C8.12932 38.2951 8.26624 38.6023 8.54184 38.8199C8.81744 39.0376 9.18257 39.1465 9.63898 39.1465C10.0954 39.1465 10.4377 39.0517 10.7045 38.8603C10.9731 38.669 11.1065 38.4022 11.1065 38.0616C11.1065 37.8948 11.0767 37.7474 11.0152 37.6245C10.9555 37.4999 10.8853 37.3998 10.8046 37.3226C10.7238 37.2453 10.5974 37.1734 10.4219 37.1067C10.2481 37.04 10.0954 36.9908 9.96373 36.961C9.83383 36.9311 9.63547 36.8855 9.3704 36.8258C9.10533 36.7661 8.89292 36.7152 8.73143 36.6748C8.26799 36.5414 7.90462 36.3343 7.63955 36.0569C7.37449 35.7796 7.24283 35.3477 7.24283 34.7649C7.24283 34.2752 7.40608 33.8626 7.7361 33.5274C7.90989 33.3465 8.11527 33.2096 8.3505 33.1148C8.75951 32.9674 9.17906 32.8936 9.60738 32.8936L9.60914 32.8901Z" fill="#211D1E"/>
<path d="M23.2068 32.971V33.9558H19.9172V35.9271H22.7645V36.8926H19.9172V39.0342H23.2068V40.0102H18.8218V32.9692H23.2068V32.971Z" fill="#211D1E"/>
<path d="M32.3293 39.1267C32.7928 39.1267 33.1596 38.9968 33.43 38.7335C33.7021 38.4719 33.8372 38.1594 33.8372 37.7978H34.9238C34.9379 38.1524 34.8484 38.514 34.657 38.8792C34.4657 39.2443 34.2568 39.4936 34.0286 39.6287C33.6002 39.9447 33.0332 40.1009 32.3293 40.1009C31.3305 40.1009 30.6178 39.792 30.1912 39.1758C29.7647 38.5597 29.5522 37.6679 29.5522 36.5006C29.5522 36.0845 29.5751 35.7089 29.6225 35.3736C29.6699 35.0383 29.7559 34.7118 29.884 34.3923C30.0122 34.0746 30.1754 33.8095 30.3773 33.5971C30.5792 33.3864 30.8425 33.2162 31.1725 33.0898C31.5008 32.9616 31.8834 32.8984 32.3188 32.8984C33.1035 32.8984 33.7003 33.0687 34.1093 33.411C34.2498 33.5181 34.3867 33.6585 34.5218 33.8341C34.6623 34.0079 34.7711 34.2255 34.8484 34.4871C34.9256 34.7487 34.9607 34.9962 34.9537 35.2314H33.8565C33.8565 34.8821 33.7301 34.5696 33.4791 34.2905C33.2281 34.0131 32.8437 33.8727 32.3276 33.8727C31.664 33.8727 31.2076 34.1237 30.9601 34.6275C30.8793 34.8083 30.8162 34.9944 30.7688 35.1858C30.7214 35.3771 30.6933 35.5281 30.6827 35.6386C30.6722 35.7492 30.6634 35.9072 30.6582 36.1109C30.6511 36.3162 30.6476 36.4444 30.6476 36.4988C30.6476 36.9219 30.681 37.3344 30.7477 37.7364C30.8214 38.1524 30.9899 38.493 31.2497 38.758C31.5113 39.0231 31.8694 39.146 32.3258 39.1249L32.3293 39.1267Z" fill="#211D1E"/>
<path d="M42.5591 32.9702V37.687C42.5591 38.1698 42.6889 38.5279 42.9505 38.7631C43.2121 38.9983 43.5579 39.1159 43.9862 39.1159C44.5163 39.1159 44.8955 39.0054 45.122 38.7842C45.3502 38.563 45.4643 38.2207 45.4643 37.759V32.972H46.5614V37.6379C46.5614 38.068 46.4947 38.4787 46.3595 38.8755C46.2384 39.2511 45.9663 39.5548 45.545 39.7865C45.122 40.0182 44.5901 40.1236 43.9458 40.1025C43.7106 40.0884 43.5509 40.0797 43.4631 40.0727C43.3753 40.0656 43.2349 40.0428 43.04 40.0024C42.8452 39.9621 42.6696 39.8953 42.5117 39.8006C42.3537 39.7075 42.1974 39.5829 42.0447 39.4284C41.9499 39.3143 41.8692 39.1967 41.799 39.0756C41.7287 38.9544 41.6743 38.8509 41.6375 38.7631C41.6006 38.6753 41.5707 38.57 41.5479 38.4471C41.5251 38.3225 41.5093 38.233 41.5023 38.175C41.4953 38.1189 41.4865 38.0241 41.4777 37.8942C41.4672 37.7625 41.4619 37.6818 41.4619 37.6484V32.972H42.5591V32.9702Z" fill="#211D1E"/>
<path d="M58.4489 35.0436C58.4419 35.3929 58.3839 35.7019 58.2733 35.974C58.1627 36.246 58.0241 36.4514 57.8555 36.5919C57.687 36.7323 57.529 36.8394 57.3781 36.9131C57.2271 36.9868 57.0814 37.0307 56.941 37.0448L58.5595 40.0114H57.3728L55.7736 37.1448H54.5659V40.0114H53.4688V32.981H56.144C56.5864 32.981 56.9919 33.0477 57.3605 33.1828C57.7028 33.2899 57.9749 33.5199 58.175 33.871C58.3769 34.2238 58.4664 34.6135 58.4471 35.0418L58.4489 35.0436ZM54.5571 36.1793H55.9351C56.8936 36.1793 57.3728 35.8142 57.3728 35.0822C57.3728 34.3116 56.9269 33.9254 56.0352 33.9254H54.5571V36.1776V36.1793Z" fill="#211D1E"/>
<path d="M64.8364 40.0112V39.1159H66.1934V33.876H64.8364V32.9702H68.679V33.876H67.301V39.1159H68.679V40.0112H64.8364Z" fill="#211D1E"/>
<path d="M74.561 33.9574V32.9727H79.7817V33.9574H77.7103V40.0119H76.6131V33.9574H74.561Z" fill="#211D1E"/>
<path d="M85.665 40.0112V39.1159H87.022V33.876H85.665V32.9702H89.5077V33.876H88.1297V39.1159H89.5077V40.0112H85.665Z" fill="#211D1E"/>
<path d="M100.561 32.971V33.9558H97.2717V35.9271H100.119V36.8926H97.2717V39.0342H100.561V40.0102H96.1763V32.9692H100.561V32.971Z" fill="#211D1E"/>
<path d="M109.331 32.8901C109.828 32.8901 110.281 32.9937 110.688 33.2026C111.024 33.3501 111.289 33.6186 111.483 34.0066C111.678 34.3963 111.761 34.714 111.734 34.9615H110.629C110.615 34.6596 110.532 34.4314 110.378 34.2769C110.097 33.989 109.744 33.8451 109.321 33.8451C109.1 33.8451 108.901 33.8714 108.727 33.9258C108.285 34.054 108.067 34.3419 108.074 34.7913C108.074 34.9317 108.104 35.0581 108.166 35.1687C108.225 35.2793 108.294 35.3688 108.371 35.4355C108.448 35.5022 108.575 35.5707 108.749 35.6374C108.922 35.7041 109.072 35.755 109.196 35.7883C109.321 35.8217 109.512 35.8691 109.774 35.9288C110.471 36.0973 111.008 36.329 111.383 36.6274C111.759 36.9258 111.947 37.37 111.947 37.9598C111.947 38.6497 111.71 39.1781 111.238 39.5432C110.765 39.9083 110.146 40.0909 109.382 40.0909C108.866 40.0909 108.376 39.9961 107.913 39.81C107.53 39.6626 107.234 39.394 107.023 39.006C106.812 38.6181 106.719 38.2477 106.746 37.9001H107.851C107.851 38.2951 107.988 38.6023 108.264 38.8199C108.54 39.0376 108.905 39.1465 109.361 39.1465C109.818 39.1465 110.16 39.0517 110.427 38.8603C110.695 38.669 110.829 38.4022 110.829 38.0616C110.829 37.8948 110.799 37.7474 110.737 37.6245C110.678 37.4999 110.607 37.3998 110.527 37.3226C110.446 37.2453 110.32 37.1734 110.144 37.1067C109.97 37.04 109.818 36.9908 109.686 36.961C109.556 36.9311 109.358 36.8855 109.093 36.8258C108.827 36.7661 108.615 36.7152 108.454 36.6748C107.99 36.5414 107.627 36.3343 107.362 36.0569C107.097 35.7796 106.965 35.3477 106.965 34.7649C106.965 34.2752 107.128 33.8626 107.458 33.5274C107.632 33.3465 107.837 33.2096 108.073 33.1148C108.482 32.9674 108.901 32.8936 109.33 32.8936L109.331 32.8901Z" fill="#211D1E"/>
</g>
<defs>
<clipPath id="clip0_3001_276">
<rect width="119" height="42" fill="white"/>
</clipPath>
</defs>
</svg>
